<mxfile host="65bd71144e">
    <diagram id="Io3V9nZZeswL9GGxNf_B" name="Page-1">
        <mxGraphModel dx="2138" dy="951" grid="1" gridSize="10" guides="1" tooltips="1" connect="1" arrows="1" fold="1" page="0" pageScale="1" pageWidth="850" pageHeight="1100" background="none" math="0" shadow="0">
            <root>
                <mxCell id="0"/>
                <mxCell id="1" parent="0"/>
                <mxCell id="2" value="VehicleProperty" style="shape=table;startSize=30;container=1;collapsible=1;childLayout=tableLayout;fixedRows=1;rowLines=0;fontStyle=1;align=center;resizeLast=1;" parent="1" vertex="1">
                    <mxGeometry x="279.5" y="-30" width="240.5" height="150" as="geometry"/>
                </mxCell>
                <mxCell id="3" value="" style="shape=partialRectangle;collapsible=0;dropTarget=0;pointerEvents=0;fillColor=none;top=0;left=0;bottom=1;right=0;points=[[0,0.5],[1,0.5]];portConstraint=eastwest;" parent="2" vertex="1">
                    <mxGeometry y="30" width="240.5" height="30" as="geometry"/>
                </mxCell>
                <mxCell id="4" value="PK" style="shape=partialRectangle;connectable=0;fillColor=none;top=0;left=0;bottom=0;right=0;fontStyle=1;overflow=hidden;" parent="3" vertex="1">
                    <mxGeometry width="30" height="30" as="geometry"/>
                </mxCell>
                <mxCell id="5" value="UniqueID" style="shape=partialRectangle;connectable=0;fillColor=none;top=0;left=0;bottom=0;right=0;align=left;spacingLeft=6;fontStyle=5;overflow=hidden;" parent="3" vertex="1">
                    <mxGeometry x="30" width="210.5" height="30" as="geometry"/>
                </mxCell>
                <mxCell id="6" value="" style="shape=partialRectangle;collapsible=0;dropTarget=0;pointerEvents=0;fillColor=none;top=0;left=0;bottom=0;right=0;points=[[0,0.5],[1,0.5]];portConstraint=eastwest;" parent="2" vertex="1">
                    <mxGeometry y="60" width="240.5" height="30" as="geometry"/>
                </mxCell>
                <mxCell id="7" value="" style="shape=partialRectangle;connectable=0;fillColor=none;top=0;left=0;bottom=0;right=0;editable=1;overflow=hidden;" parent="6" vertex="1">
                    <mxGeometry width="30" height="30" as="geometry"/>
                </mxCell>
                <mxCell id="8" value="value [INT] [DF = 0]" style="shape=partialRectangle;connectable=0;fillColor=none;top=0;left=0;bottom=0;right=0;align=left;spacingLeft=6;overflow=hidden;" parent="6" vertex="1">
                    <mxGeometry x="30" width="210.5" height="30" as="geometry"/>
                </mxCell>
                <mxCell id="88" value="" style="shape=partialRectangle;collapsible=0;dropTarget=0;pointerEvents=0;fillColor=none;top=0;left=0;bottom=0;right=0;points=[[0,0.5],[1,0.5]];portConstraint=eastwest;" parent="2" vertex="1">
                    <mxGeometry y="90" width="240.5" height="30" as="geometry"/>
                </mxCell>
                <mxCell id="89" value="FK" style="shape=partialRectangle;connectable=0;fillColor=none;top=0;left=0;bottom=0;right=0;editable=1;overflow=hidden;" parent="88" vertex="1">
                    <mxGeometry width="30" height="30" as="geometry"/>
                </mxCell>
                <mxCell id="90" value="property_id [INT]" style="shape=partialRectangle;connectable=0;fillColor=none;top=0;left=0;bottom=0;right=0;align=left;spacingLeft=6;overflow=hidden;" parent="88" vertex="1">
                    <mxGeometry x="30" width="210.5" height="30" as="geometry"/>
                </mxCell>
                <mxCell id="226" value="" style="shape=partialRectangle;collapsible=0;dropTarget=0;pointerEvents=0;fillColor=none;top=0;left=0;bottom=0;right=0;points=[[0,0.5],[1,0.5]];portConstraint=eastwest;" parent="2" vertex="1">
                    <mxGeometry y="120" width="240.5" height="30" as="geometry"/>
                </mxCell>
                <mxCell id="227" value="FK" style="shape=partialRectangle;connectable=0;fillColor=none;top=0;left=0;bottom=0;right=0;editable=1;overflow=hidden;" parent="226" vertex="1">
                    <mxGeometry width="30" height="30" as="geometry"/>
                </mxCell>
                <mxCell id="228" value="vehicle_id [INT]" style="shape=partialRectangle;connectable=0;fillColor=none;top=0;left=0;bottom=0;right=0;align=left;spacingLeft=6;overflow=hidden;" parent="226" vertex="1">
                    <mxGeometry x="30" width="210.5" height="30" as="geometry"/>
                </mxCell>
                <mxCell id="15" value="Property" style="shape=table;startSize=30;container=1;collapsible=1;childLayout=tableLayout;fixedRows=1;rowLines=0;fontStyle=1;align=center;resizeLast=1;" parent="1" vertex="1">
                    <mxGeometry x="-39.5" width="239.5" height="120" as="geometry"/>
                </mxCell>
                <mxCell id="16" value="" style="shape=partialRectangle;collapsible=0;dropTarget=0;pointerEvents=0;fillColor=none;top=0;left=0;bottom=1;right=0;points=[[0,0.5],[1,0.5]];portConstraint=eastwest;" parent="15" vertex="1">
                    <mxGeometry y="30" width="239.5" height="30" as="geometry"/>
                </mxCell>
                <mxCell id="17" value="PK" style="shape=partialRectangle;connectable=0;fillColor=none;top=0;left=0;bottom=0;right=0;fontStyle=1;overflow=hidden;" parent="16" vertex="1">
                    <mxGeometry width="30" height="30" as="geometry"/>
                </mxCell>
                <mxCell id="18" value="UniqueID" style="shape=partialRectangle;connectable=0;fillColor=none;top=0;left=0;bottom=0;right=0;align=left;spacingLeft=6;fontStyle=5;overflow=hidden;" parent="16" vertex="1">
                    <mxGeometry x="30" width="209.5" height="30" as="geometry"/>
                </mxCell>
                <mxCell id="19" value="" style="shape=partialRectangle;collapsible=0;dropTarget=0;pointerEvents=0;fillColor=none;top=0;left=0;bottom=0;right=0;points=[[0,0.5],[1,0.5]];portConstraint=eastwest;" parent="15" vertex="1">
                    <mxGeometry y="60" width="239.5" height="30" as="geometry"/>
                </mxCell>
                <mxCell id="20" value="" style="shape=partialRectangle;connectable=0;fillColor=none;top=0;left=0;bottom=0;right=0;editable=1;overflow=hidden;" parent="19" vertex="1">
                    <mxGeometry width="30" height="30" as="geometry"/>
                </mxCell>
                <mxCell id="21" value="name [VARCHAR]" style="shape=partialRectangle;connectable=0;fillColor=none;top=0;left=0;bottom=0;right=0;align=left;spacingLeft=6;overflow=hidden;" parent="19" vertex="1">
                    <mxGeometry x="30" width="209.5" height="30" as="geometry"/>
                </mxCell>
                <mxCell id="22" value="" style="shape=partialRectangle;collapsible=0;dropTarget=0;pointerEvents=0;fillColor=none;top=0;left=0;bottom=0;right=0;points=[[0,0.5],[1,0.5]];portConstraint=eastwest;" parent="15" vertex="1">
                    <mxGeometry y="90" width="239.5" height="30" as="geometry"/>
                </mxCell>
                <mxCell id="23" value="FK" style="shape=partialRectangle;connectable=0;fillColor=none;top=0;left=0;bottom=0;right=0;editable=1;overflow=hidden;" parent="22" vertex="1">
                    <mxGeometry width="30" height="30" as="geometry"/>
                </mxCell>
                <mxCell id="24" value="category_id [INT]" style="shape=partialRectangle;connectable=0;fillColor=none;top=0;left=0;bottom=0;right=0;align=left;spacingLeft=6;overflow=hidden;" parent="22" vertex="1">
                    <mxGeometry x="30" width="209.5" height="30" as="geometry"/>
                </mxCell>
                <mxCell id="28" value="Vehicle" style="shape=table;startSize=30;container=1;collapsible=1;childLayout=tableLayout;fixedRows=1;rowLines=0;fontStyle=1;align=center;resizeLast=1;" parent="1" vertex="1">
                    <mxGeometry x="600" width="240" height="90" as="geometry"/>
                </mxCell>
                <mxCell id="29" value="" style="shape=partialRectangle;collapsible=0;dropTarget=0;pointerEvents=0;fillColor=none;top=0;left=0;bottom=1;right=0;points=[[0,0.5],[1,0.5]];portConstraint=eastwest;" parent="28" vertex="1">
                    <mxGeometry y="30" width="240" height="30" as="geometry"/>
                </mxCell>
                <mxCell id="30" value="PK" style="shape=partialRectangle;connectable=0;fillColor=none;top=0;left=0;bottom=0;right=0;fontStyle=1;overflow=hidden;" parent="29" vertex="1">
                    <mxGeometry width="30" height="30" as="geometry"/>
                </mxCell>
                <mxCell id="31" value="UniqueID" style="shape=partialRectangle;connectable=0;fillColor=none;top=0;left=0;bottom=0;right=0;align=left;spacingLeft=6;fontStyle=5;overflow=hidden;" parent="29" vertex="1">
                    <mxGeometry x="30" width="210" height="30" as="geometry"/>
                </mxCell>
                <mxCell id="32" value="" style="shape=partialRectangle;collapsible=0;dropTarget=0;pointerEvents=0;fillColor=none;top=0;left=0;bottom=0;right=0;points=[[0,0.5],[1,0.5]];portConstraint=eastwest;" parent="28" vertex="1">
                    <mxGeometry y="60" width="240" height="30" as="geometry"/>
                </mxCell>
                <mxCell id="33" value="" style="shape=partialRectangle;connectable=0;fillColor=none;top=0;left=0;bottom=0;right=0;editable=1;overflow=hidden;" parent="32" vertex="1">
                    <mxGeometry width="30" height="30" as="geometry"/>
                </mxCell>
                <mxCell id="34" value="name [VARCHAR]" style="shape=partialRectangle;connectable=0;fillColor=none;top=0;left=0;bottom=0;right=0;align=left;spacingLeft=6;overflow=hidden;" parent="32" vertex="1">
                    <mxGeometry x="30" width="210" height="30" as="geometry"/>
                </mxCell>
                <mxCell id="41" value="Category" style="shape=table;startSize=30;container=1;collapsible=1;childLayout=tableLayout;fixedRows=1;rowLines=0;fontStyle=1;align=center;resizeLast=1;" parent="1" vertex="1">
                    <mxGeometry x="-360" width="240" height="120" as="geometry"/>
                </mxCell>
                <mxCell id="42" value="" style="shape=partialRectangle;collapsible=0;dropTarget=0;pointerEvents=0;fillColor=none;top=0;left=0;bottom=1;right=0;points=[[0,0.5],[1,0.5]];portConstraint=eastwest;" parent="41" vertex="1">
                    <mxGeometry y="30" width="240" height="30" as="geometry"/>
                </mxCell>
                <mxCell id="43" value="PK" style="shape=partialRectangle;connectable=0;fillColor=none;top=0;left=0;bottom=0;right=0;fontStyle=1;overflow=hidden;" parent="42" vertex="1">
                    <mxGeometry width="30" height="30" as="geometry"/>
                </mxCell>
                <mxCell id="44" value="UniqueID" style="shape=partialRectangle;connectable=0;fillColor=none;top=0;left=0;bottom=0;right=0;align=left;spacingLeft=6;fontStyle=5;overflow=hidden;" parent="42" vertex="1">
                    <mxGeometry x="30" width="210" height="30" as="geometry"/>
                </mxCell>
                <mxCell id="45" value="" style="shape=partialRectangle;collapsible=0;dropTarget=0;pointerEvents=0;fillColor=none;top=0;left=0;bottom=0;right=0;points=[[0,0.5],[1,0.5]];portConstraint=eastwest;" parent="41" vertex="1">
                    <mxGeometry y="60" width="240" height="30" as="geometry"/>
                </mxCell>
                <mxCell id="46" value="" style="shape=partialRectangle;connectable=0;fillColor=none;top=0;left=0;bottom=0;right=0;editable=1;overflow=hidden;" parent="45" vertex="1">
                    <mxGeometry width="30" height="30" as="geometry"/>
                </mxCell>
                <mxCell id="47" value="name [VARCHAR]" style="shape=partialRectangle;connectable=0;fillColor=none;top=0;left=0;bottom=0;right=0;align=left;spacingLeft=6;overflow=hidden;" parent="45" vertex="1">
                    <mxGeometry x="30" width="210" height="30" as="geometry"/>
                </mxCell>
                <mxCell id="48" value="" style="shape=partialRectangle;collapsible=0;dropTarget=0;pointerEvents=0;fillColor=none;top=0;left=0;bottom=0;right=0;points=[[0,0.5],[1,0.5]];portConstraint=eastwest;" parent="41" vertex="1">
                    <mxGeometry y="90" width="240" height="30" as="geometry"/>
                </mxCell>
                <mxCell id="49" value="" style="shape=partialRectangle;connectable=0;fillColor=none;top=0;left=0;bottom=0;right=0;editable=1;overflow=hidden;" parent="48" vertex="1">
                    <mxGeometry width="30" height="30" as="geometry"/>
                </mxCell>
                <mxCell id="50" value="icon [VARCHAR]" style="shape=partialRectangle;connectable=0;fillColor=none;top=0;left=0;bottom=0;right=0;align=left;spacingLeft=6;overflow=hidden;" parent="48" vertex="1">
                    <mxGeometry x="30" width="210" height="30" as="geometry"/>
                </mxCell>
                <mxCell id="60" style="edgeStyle=orthogonalEdgeStyle;rounded=0;orthogonalLoop=1;jettySize=auto;html=1;exitX=1;exitY=0.5;exitDx=0;exitDy=0;entryX=0;entryY=0.5;entryDx=0;entryDy=0;endArrow=ERmany;endFill=0;startArrow=ERmandOne;startFill=0;" parent="1" source="42" target="22" edge="1">
                    <mxGeometry relative="1" as="geometry"/>
                </mxCell>
                <mxCell id="62" value="Id" style="swimlane;fontStyle=0;childLayout=stackLayout;horizontal=1;startSize=26;horizontalStack=0;resizeParent=1;resizeParentMax=0;resizeLast=0;collapsible=1;marginBottom=0;direction=east;" parent="1" vertex="1">
                    <mxGeometry x="-360" y="240" width="80" height="120" as="geometry"/>
                </mxCell>
                <mxCell id="63" value="1" style="text;strokeColor=none;fillColor=none;align=left;verticalAlign=top;spacingLeft=4;spacingRight=4;overflow=hidden;rotatable=0;points=[[0,0.5],[1,0.5]];portConstraint=eastwest;" parent="62" vertex="1">
                    <mxGeometry y="26" width="80" height="26" as="geometry"/>
                </mxCell>
                <mxCell id="64" value="2" style="text;strokeColor=none;fillColor=none;align=left;verticalAlign=top;spacingLeft=4;spacingRight=4;overflow=hidden;rotatable=0;points=[[0,0.5],[1,0.5]];portConstraint=eastwest;" parent="62" vertex="1">
                    <mxGeometry y="52" width="80" height="26" as="geometry"/>
                </mxCell>
                <mxCell id="65" value="3" style="text;strokeColor=none;fillColor=none;align=left;verticalAlign=top;spacingLeft=4;spacingRight=4;overflow=hidden;rotatable=0;points=[[0,0.5],[1,0.5]];portConstraint=eastwest;" parent="62" vertex="1">
                    <mxGeometry y="78" width="80" height="42" as="geometry"/>
                </mxCell>
                <mxCell id="91" value="" style="endArrow=classic;html=1;" parent="1" edge="1">
                    <mxGeometry width="50" height="50" relative="1" as="geometry">
                        <mxPoint x="-240" y="158" as="sourcePoint"/>
                        <mxPoint x="-120" y="157.5" as="targetPoint"/>
                    </mxGeometry>
                </mxCell>
                <mxCell id="92" value="belongsToMany" style="text;html=1;strokeColor=none;fillColor=none;align=center;verticalAlign=middle;whiteSpace=wrap;rounded=0;" parent="1" vertex="1">
                    <mxGeometry x="-230" y="140" width="90" height="20" as="geometry"/>
                </mxCell>
                <mxCell id="93" value="" style="endArrow=classic;html=1;" parent="1" edge="1">
                    <mxGeometry width="50" height="50" relative="1" as="geometry">
                        <mxPoint x="80" y="199" as="sourcePoint"/>
                        <mxPoint x="-39.5" y="199" as="targetPoint"/>
                    </mxGeometry>
                </mxCell>
                <mxCell id="94" value="belongsTo" style="text;html=1;strokeColor=none;fillColor=none;align=center;verticalAlign=middle;whiteSpace=wrap;rounded=0;" parent="1" vertex="1">
                    <mxGeometry x="-30" y="180" width="102.5" height="20" as="geometry"/>
                </mxCell>
                <mxCell id="95" value="" style="endArrow=classic;html=1;" parent="1" edge="1">
                    <mxGeometry width="50" height="50" relative="1" as="geometry">
                        <mxPoint x="79.5" y="160" as="sourcePoint"/>
                        <mxPoint x="380" y="160" as="targetPoint"/>
                    </mxGeometry>
                </mxCell>
                <mxCell id="96" value="belongsToMany" style="text;html=1;strokeColor=none;fillColor=none;align=center;verticalAlign=middle;whiteSpace=wrap;rounded=0;" parent="1" vertex="1">
                    <mxGeometry x="189.5" y="139" width="90" height="20" as="geometry"/>
                </mxCell>
                <mxCell id="99" value="name" style="swimlane;fontStyle=0;childLayout=stackLayout;horizontal=1;startSize=26;horizontalStack=0;resizeParent=1;resizeParentMax=0;resizeLast=0;collapsible=1;marginBottom=0;direction=east;" parent="1" vertex="1">
                    <mxGeometry x="-280" y="240" width="80" height="120" as="geometry"/>
                </mxCell>
                <mxCell id="100" value="Carroceria" style="text;strokeColor=none;fillColor=none;align=left;verticalAlign=top;spacingLeft=4;spacingRight=4;overflow=hidden;rotatable=0;points=[[0,0.5],[1,0.5]];portConstraint=eastwest;" parent="99" vertex="1">
                    <mxGeometry y="26" width="80" height="26" as="geometry"/>
                </mxCell>
                <mxCell id="101" value="Motor" style="text;strokeColor=none;fillColor=none;align=left;verticalAlign=top;spacingLeft=4;spacingRight=4;overflow=hidden;rotatable=0;points=[[0,0.5],[1,0.5]];portConstraint=eastwest;" parent="99" vertex="1">
                    <mxGeometry y="52" width="80" height="26" as="geometry"/>
                </mxCell>
                <mxCell id="102" value="Alumbrado&#10;" style="text;strokeColor=none;fillColor=none;align=left;verticalAlign=top;spacingLeft=4;spacingRight=4;overflow=hidden;rotatable=0;points=[[0,0.5],[1,0.5]];portConstraint=eastwest;" parent="99" vertex="1">
                    <mxGeometry y="78" width="80" height="42" as="geometry"/>
                </mxCell>
                <mxCell id="103" value="icon" style="swimlane;fontStyle=0;childLayout=stackLayout;horizontal=1;startSize=26;horizontalStack=0;resizeParent=1;resizeParentMax=0;resizeLast=0;collapsible=1;marginBottom=0;direction=east;" parent="1" vertex="1">
                    <mxGeometry x="-200" y="240" width="80" height="120" as="geometry"/>
                </mxCell>
                <mxCell id="104" value="car.jpg" style="text;strokeColor=none;fillColor=none;align=left;verticalAlign=top;spacingLeft=4;spacingRight=4;overflow=hidden;rotatable=0;points=[[0,0.5],[1,0.5]];portConstraint=eastwest;" parent="103" vertex="1">
                    <mxGeometry y="26" width="80" height="26" as="geometry"/>
                </mxCell>
                <mxCell id="105" value="motor.jpg" style="text;strokeColor=none;fillColor=none;align=left;verticalAlign=top;spacingLeft=4;spacingRight=4;overflow=hidden;rotatable=0;points=[[0,0.5],[1,0.5]];portConstraint=eastwest;" parent="103" vertex="1">
                    <mxGeometry y="52" width="80" height="26" as="geometry"/>
                </mxCell>
                <mxCell id="106" value="lights.jpg&#10;" style="text;strokeColor=none;fillColor=none;align=left;verticalAlign=top;spacingLeft=4;spacingRight=4;overflow=hidden;rotatable=0;points=[[0,0.5],[1,0.5]];portConstraint=eastwest;" parent="103" vertex="1">
                    <mxGeometry y="78" width="80" height="42" as="geometry"/>
                </mxCell>
                <mxCell id="109" value="MODEL" style="text;html=1;strokeColor=#005700;fillColor=#008a00;align=center;verticalAlign=middle;whiteSpace=wrap;rounded=0;fontColor=#ffffff;" parent="1" vertex="1">
                    <mxGeometry x="-500" y="40" width="80" height="40" as="geometry"/>
                </mxCell>
                <mxCell id="111" value="SEQUELIZE RELATIONS" style="text;html=1;strokeColor=#006EAF;fillColor=#1ba1e2;align=center;verticalAlign=middle;whiteSpace=wrap;rounded=0;fontColor=#ffffff;" parent="1" vertex="1">
                    <mxGeometry x="-500" y="160" width="80" height="40" as="geometry"/>
                </mxCell>
                <mxCell id="112" value="PREVIEW EXAMPLE" style="text;html=1;strokeColor=#BD7000;fillColor=#f0a30a;align=center;verticalAlign=middle;whiteSpace=wrap;rounded=0;fontColor=#000000;" parent="1" vertex="1">
                    <mxGeometry x="-500" y="280" width="80" height="40" as="geometry"/>
                </mxCell>
                <mxCell id="120" value="Id" style="swimlane;fontStyle=0;childLayout=stackLayout;horizontal=1;startSize=26;horizontalStack=0;resizeParent=1;resizeParentMax=0;resizeLast=0;collapsible=1;marginBottom=0;direction=east;" parent="1" vertex="1">
                    <mxGeometry x="-39.5" y="240" width="80" height="120" as="geometry"/>
                </mxCell>
                <mxCell id="121" value="1" style="text;strokeColor=none;fillColor=none;align=left;verticalAlign=top;spacingLeft=4;spacingRight=4;overflow=hidden;rotatable=0;points=[[0,0.5],[1,0.5]];portConstraint=eastwest;" parent="120" vertex="1">
                    <mxGeometry y="26" width="80" height="26" as="geometry"/>
                </mxCell>
                <mxCell id="122" value="2" style="text;strokeColor=none;fillColor=none;align=left;verticalAlign=top;spacingLeft=4;spacingRight=4;overflow=hidden;rotatable=0;points=[[0,0.5],[1,0.5]];portConstraint=eastwest;" parent="120" vertex="1">
                    <mxGeometry y="52" width="80" height="26" as="geometry"/>
                </mxCell>
                <mxCell id="123" value="3" style="text;strokeColor=none;fillColor=none;align=left;verticalAlign=top;spacingLeft=4;spacingRight=4;overflow=hidden;rotatable=0;points=[[0,0.5],[1,0.5]];portConstraint=eastwest;" parent="120" vertex="1">
                    <mxGeometry y="78" width="80" height="42" as="geometry"/>
                </mxCell>
                <mxCell id="124" value="name" style="swimlane;fontStyle=0;childLayout=stackLayout;horizontal=1;startSize=26;horizontalStack=0;resizeParent=1;resizeParentMax=0;resizeLast=0;collapsible=1;marginBottom=0;direction=east;" parent="1" vertex="1">
                    <mxGeometry x="40.5" y="240" width="80" height="120" as="geometry"/>
                </mxCell>
                <mxCell id="125" value="Paragolpe" style="text;strokeColor=none;fillColor=none;align=left;verticalAlign=top;spacingLeft=4;spacingRight=4;overflow=hidden;rotatable=0;points=[[0,0.5],[1,0.5]];portConstraint=eastwest;" parent="124" vertex="1">
                    <mxGeometry y="26" width="80" height="26" as="geometry"/>
                </mxCell>
                <mxCell id="126" value="Capo" style="text;strokeColor=none;fillColor=none;align=left;verticalAlign=top;spacingLeft=4;spacingRight=4;overflow=hidden;rotatable=0;points=[[0,0.5],[1,0.5]];portConstraint=eastwest;" parent="124" vertex="1">
                    <mxGeometry y="52" width="80" height="26" as="geometry"/>
                </mxCell>
                <mxCell id="127" value="Frenos&#10;" style="text;strokeColor=none;fillColor=none;align=left;verticalAlign=top;spacingLeft=4;spacingRight=4;overflow=hidden;rotatable=0;points=[[0,0.5],[1,0.5]];portConstraint=eastwest;" parent="124" vertex="1">
                    <mxGeometry y="78" width="80" height="42" as="geometry"/>
                </mxCell>
                <mxCell id="128" value="category_id" style="swimlane;fontStyle=0;childLayout=stackLayout;horizontal=1;startSize=26;horizontalStack=0;resizeParent=1;resizeParentMax=0;resizeLast=0;collapsible=1;marginBottom=0;direction=east;" parent="1" vertex="1">
                    <mxGeometry x="120" y="240" width="80" height="118" as="geometry"/>
                </mxCell>
                <mxCell id="129" value="1" style="text;strokeColor=none;fillColor=none;align=left;verticalAlign=top;spacingLeft=4;spacingRight=4;overflow=hidden;rotatable=0;points=[[0,0.5],[1,0.5]];portConstraint=eastwest;" parent="128" vertex="1">
                    <mxGeometry y="26" width="80" height="24" as="geometry"/>
                </mxCell>
                <mxCell id="130" value="1" style="text;strokeColor=none;fillColor=none;align=left;verticalAlign=top;spacingLeft=4;spacingRight=4;overflow=hidden;rotatable=0;points=[[0,0.5],[1,0.5]];portConstraint=eastwest;" parent="128" vertex="1">
                    <mxGeometry y="50" width="80" height="26" as="geometry"/>
                </mxCell>
                <mxCell id="131" value="2" style="text;strokeColor=none;fillColor=none;align=left;verticalAlign=top;spacingLeft=4;spacingRight=4;overflow=hidden;rotatable=0;points=[[0,0.5],[1,0.5]];portConstraint=eastwest;" parent="128" vertex="1">
                    <mxGeometry y="76" width="80" height="42" as="geometry"/>
                </mxCell>
                <mxCell id="132" value="Id" style="swimlane;fontStyle=0;childLayout=stackLayout;horizontal=1;startSize=26;horizontalStack=0;resizeParent=1;resizeParentMax=0;resizeLast=0;collapsible=1;marginBottom=0;direction=east;" parent="1" vertex="1">
                    <mxGeometry x="250.5" y="240" width="80" height="260" as="geometry"/>
                </mxCell>
                <mxCell id="133" value="1" style="text;strokeColor=none;fillColor=none;align=left;verticalAlign=top;spacingLeft=4;spacingRight=4;overflow=hidden;rotatable=0;points=[[0,0.5],[1,0.5]];portConstraint=eastwest;" parent="132" vertex="1">
                    <mxGeometry y="26" width="80" height="26" as="geometry"/>
                </mxCell>
                <mxCell id="134" value="2" style="text;strokeColor=none;fillColor=none;align=left;verticalAlign=top;spacingLeft=4;spacingRight=4;overflow=hidden;rotatable=0;points=[[0,0.5],[1,0.5]];portConstraint=eastwest;" parent="132" vertex="1">
                    <mxGeometry y="52" width="80" height="26" as="geometry"/>
                </mxCell>
                <mxCell id="195" value="3" style="text;strokeColor=none;fillColor=none;align=left;verticalAlign=top;spacingLeft=4;spacingRight=4;overflow=hidden;rotatable=0;points=[[0,0.5],[1,0.5]];portConstraint=eastwest;" parent="132" vertex="1">
                    <mxGeometry y="78" width="80" height="26" as="geometry"/>
                </mxCell>
                <mxCell id="223" value="" style="endArrow=none;html=1;entryX=0.988;entryY=0.115;entryDx=0;entryDy=0;entryPerimeter=0;" parent="132" target="202" edge="1">
                    <mxGeometry width="50" height="50" relative="1" as="geometry">
                        <mxPoint x="-0.5" y="103" as="sourcePoint"/>
                        <mxPoint x="109.5" y="103" as="targetPoint"/>
                    </mxGeometry>
                </mxCell>
                <mxCell id="196" value="4" style="text;strokeColor=none;fillColor=none;align=left;verticalAlign=top;spacingLeft=4;spacingRight=4;overflow=hidden;rotatable=0;points=[[0,0.5],[1,0.5]];portConstraint=eastwest;" parent="132" vertex="1">
                    <mxGeometry y="104" width="80" height="26" as="geometry"/>
                </mxCell>
                <mxCell id="203" value="5" style="text;strokeColor=none;fillColor=none;align=left;verticalAlign=top;spacingLeft=4;spacingRight=4;overflow=hidden;rotatable=0;points=[[0,0.5],[1,0.5]];portConstraint=eastwest;" parent="132" vertex="1">
                    <mxGeometry y="130" width="80" height="26" as="geometry"/>
                </mxCell>
                <mxCell id="204" value="6" style="text;strokeColor=none;fillColor=none;align=left;verticalAlign=top;spacingLeft=4;spacingRight=4;overflow=hidden;rotatable=0;points=[[0,0.5],[1,0.5]];portConstraint=eastwest;" parent="132" vertex="1">
                    <mxGeometry y="156" width="80" height="26" as="geometry"/>
                </mxCell>
                <mxCell id="211" value="7" style="text;strokeColor=none;fillColor=none;align=left;verticalAlign=top;spacingLeft=4;spacingRight=4;overflow=hidden;rotatable=0;points=[[0,0.5],[1,0.5]];portConstraint=eastwest;" parent="132" vertex="1">
                    <mxGeometry y="182" width="80" height="26" as="geometry"/>
                </mxCell>
                <mxCell id="212" value="8" style="text;strokeColor=none;fillColor=none;align=left;verticalAlign=top;spacingLeft=4;spacingRight=4;overflow=hidden;rotatable=0;points=[[0,0.5],[1,0.5]];portConstraint=eastwest;" parent="132" vertex="1">
                    <mxGeometry y="208" width="80" height="26" as="geometry"/>
                </mxCell>
                <mxCell id="219" value="9" style="text;strokeColor=none;fillColor=none;align=left;verticalAlign=top;spacingLeft=4;spacingRight=4;overflow=hidden;rotatable=0;points=[[0,0.5],[1,0.5]];portConstraint=eastwest;" parent="132" vertex="1">
                    <mxGeometry y="234" width="80" height="26" as="geometry"/>
                </mxCell>
                <mxCell id="136" value="value" style="swimlane;fontStyle=0;childLayout=stackLayout;horizontal=1;startSize=26;horizontalStack=0;resizeParent=1;resizeParentMax=0;resizeLast=0;collapsible=1;marginBottom=0;direction=east;" parent="1" vertex="1">
                    <mxGeometry x="330.5" y="240" width="80" height="260" as="geometry"/>
                </mxCell>
                <mxCell id="137" value="4&#10;" style="text;strokeColor=none;fillColor=none;align=left;verticalAlign=top;spacingLeft=4;spacingRight=4;overflow=hidden;rotatable=0;points=[[0,0.5],[1,0.5]];portConstraint=eastwest;" parent="136" vertex="1">
                    <mxGeometry y="26" width="80" height="26" as="geometry"/>
                </mxCell>
                <mxCell id="138" value="4" style="text;strokeColor=none;fillColor=none;align=left;verticalAlign=top;spacingLeft=4;spacingRight=4;overflow=hidden;rotatable=0;points=[[0,0.5],[1,0.5]];portConstraint=eastwest;" parent="136" vertex="1">
                    <mxGeometry y="52" width="80" height="26" as="geometry"/>
                </mxCell>
                <mxCell id="197" value="4&#10;" style="text;strokeColor=none;fillColor=none;align=left;verticalAlign=top;spacingLeft=4;spacingRight=4;overflow=hidden;rotatable=0;points=[[0,0.5],[1,0.5]];portConstraint=eastwest;" parent="136" vertex="1">
                    <mxGeometry y="78" width="80" height="26" as="geometry"/>
                </mxCell>
                <mxCell id="198" value="4" style="text;strokeColor=none;fillColor=none;align=left;verticalAlign=top;spacingLeft=4;spacingRight=4;overflow=hidden;rotatable=0;points=[[0,0.5],[1,0.5]];portConstraint=eastwest;" parent="136" vertex="1">
                    <mxGeometry y="104" width="80" height="26" as="geometry"/>
                </mxCell>
                <mxCell id="205" value="4&#10;" style="text;strokeColor=none;fillColor=none;align=left;verticalAlign=top;spacingLeft=4;spacingRight=4;overflow=hidden;rotatable=0;points=[[0,0.5],[1,0.5]];portConstraint=eastwest;" parent="136" vertex="1">
                    <mxGeometry y="130" width="80" height="26" as="geometry"/>
                </mxCell>
                <mxCell id="206" value="4" style="text;strokeColor=none;fillColor=none;align=left;verticalAlign=top;spacingLeft=4;spacingRight=4;overflow=hidden;rotatable=0;points=[[0,0.5],[1,0.5]];portConstraint=eastwest;" parent="136" vertex="1">
                    <mxGeometry y="156" width="80" height="26" as="geometry"/>
                </mxCell>
                <mxCell id="213" value="4&#10;" style="text;strokeColor=none;fillColor=none;align=left;verticalAlign=top;spacingLeft=4;spacingRight=4;overflow=hidden;rotatable=0;points=[[0,0.5],[1,0.5]];portConstraint=eastwest;" parent="136" vertex="1">
                    <mxGeometry y="182" width="80" height="26" as="geometry"/>
                </mxCell>
                <mxCell id="214" value="4" style="text;strokeColor=none;fillColor=none;align=left;verticalAlign=top;spacingLeft=4;spacingRight=4;overflow=hidden;rotatable=0;points=[[0,0.5],[1,0.5]];portConstraint=eastwest;" parent="136" vertex="1">
                    <mxGeometry y="208" width="80" height="26" as="geometry"/>
                </mxCell>
                <mxCell id="220" value="4" style="text;strokeColor=none;fillColor=none;align=left;verticalAlign=top;spacingLeft=4;spacingRight=4;overflow=hidden;rotatable=0;points=[[0,0.5],[1,0.5]];portConstraint=eastwest;" parent="136" vertex="1">
                    <mxGeometry y="234" width="80" height="26" as="geometry"/>
                </mxCell>
                <mxCell id="140" value="property_id" style="swimlane;fontStyle=0;childLayout=stackLayout;horizontal=1;startSize=26;horizontalStack=0;resizeParent=1;resizeParentMax=0;resizeLast=0;collapsible=1;marginBottom=0;direction=east;" parent="1" vertex="1">
                    <mxGeometry x="410" y="240" width="80" height="252" as="geometry"/>
                </mxCell>
                <mxCell id="141" value="1" style="text;strokeColor=none;fillColor=none;align=left;verticalAlign=top;spacingLeft=4;spacingRight=4;overflow=hidden;rotatable=0;points=[[0,0.5],[1,0.5]];portConstraint=eastwest;" parent="140" vertex="1">
                    <mxGeometry y="26" width="80" height="24" as="geometry"/>
                </mxCell>
                <mxCell id="142" value="2" style="text;strokeColor=none;fillColor=none;align=left;verticalAlign=top;spacingLeft=4;spacingRight=4;overflow=hidden;rotatable=0;points=[[0,0.5],[1,0.5]];portConstraint=eastwest;" parent="140" vertex="1">
                    <mxGeometry y="50" width="80" height="26" as="geometry"/>
                </mxCell>
                <mxCell id="199" value="3" style="text;strokeColor=none;fillColor=none;align=left;verticalAlign=top;spacingLeft=4;spacingRight=4;overflow=hidden;rotatable=0;points=[[0,0.5],[1,0.5]];portConstraint=eastwest;" parent="140" vertex="1">
                    <mxGeometry y="76" width="80" height="24" as="geometry"/>
                </mxCell>
                <mxCell id="200" value="1" style="text;strokeColor=none;fillColor=none;align=left;verticalAlign=top;spacingLeft=4;spacingRight=4;overflow=hidden;rotatable=0;points=[[0,0.5],[1,0.5]];portConstraint=eastwest;" parent="140" vertex="1">
                    <mxGeometry y="100" width="80" height="26" as="geometry"/>
                </mxCell>
                <mxCell id="207" value="2" style="text;strokeColor=none;fillColor=none;align=left;verticalAlign=top;spacingLeft=4;spacingRight=4;overflow=hidden;rotatable=0;points=[[0,0.5],[1,0.5]];portConstraint=eastwest;" parent="140" vertex="1">
                    <mxGeometry y="126" width="80" height="24" as="geometry"/>
                </mxCell>
                <mxCell id="208" value="3" style="text;strokeColor=none;fillColor=none;align=left;verticalAlign=top;spacingLeft=4;spacingRight=4;overflow=hidden;rotatable=0;points=[[0,0.5],[1,0.5]];portConstraint=eastwest;" parent="140" vertex="1">
                    <mxGeometry y="150" width="80" height="26" as="geometry"/>
                </mxCell>
                <mxCell id="224" value="" style="endArrow=none;html=1;entryX=0.988;entryY=0.115;entryDx=0;entryDy=0;entryPerimeter=0;" parent="140" edge="1">
                    <mxGeometry width="50" height="50" relative="1" as="geometry">
                        <mxPoint x="-160" y="176.01" as="sourcePoint"/>
                        <mxPoint x="159.03999999999996" y="176" as="targetPoint"/>
                    </mxGeometry>
                </mxCell>
                <mxCell id="215" value="1" style="text;strokeColor=none;fillColor=none;align=left;verticalAlign=top;spacingLeft=4;spacingRight=4;overflow=hidden;rotatable=0;points=[[0,0.5],[1,0.5]];portConstraint=eastwest;" parent="140" vertex="1">
                    <mxGeometry y="176" width="80" height="24" as="geometry"/>
                </mxCell>
                <mxCell id="216" value="2" style="text;strokeColor=none;fillColor=none;align=left;verticalAlign=top;spacingLeft=4;spacingRight=4;overflow=hidden;rotatable=0;points=[[0,0.5],[1,0.5]];portConstraint=eastwest;" parent="140" vertex="1">
                    <mxGeometry y="200" width="80" height="26" as="geometry"/>
                </mxCell>
                <mxCell id="221" value="3" style="text;strokeColor=none;fillColor=none;align=left;verticalAlign=top;spacingLeft=4;spacingRight=4;overflow=hidden;rotatable=0;points=[[0,0.5],[1,0.5]];portConstraint=eastwest;" parent="140" vertex="1">
                    <mxGeometry y="226" width="80" height="26" as="geometry"/>
                </mxCell>
                <mxCell id="144" value="1 al 5" style="text;html=1;strokeColor=none;fillColor=none;align=center;verticalAlign=middle;whiteSpace=wrap;rounded=0;" parent="1" vertex="1">
                    <mxGeometry x="382.5" y="220" width="40" height="20" as="geometry"/>
                </mxCell>
                <mxCell id="145" value="Id" style="swimlane;fontStyle=0;childLayout=stackLayout;horizontal=1;startSize=26;horizontalStack=0;resizeParent=1;resizeParentMax=0;resizeLast=0;collapsible=1;marginBottom=0;direction=east;" parent="1" vertex="1">
                    <mxGeometry x="600" y="240" width="80" height="120" as="geometry"/>
                </mxCell>
                <mxCell id="146" value="1" style="text;strokeColor=none;fillColor=none;align=left;verticalAlign=top;spacingLeft=4;spacingRight=4;overflow=hidden;rotatable=0;points=[[0,0.5],[1,0.5]];portConstraint=eastwest;" parent="145" vertex="1">
                    <mxGeometry y="26" width="80" height="26" as="geometry"/>
                </mxCell>
                <mxCell id="147" value="2" style="text;strokeColor=none;fillColor=none;align=left;verticalAlign=top;spacingLeft=4;spacingRight=4;overflow=hidden;rotatable=0;points=[[0,0.5],[1,0.5]];portConstraint=eastwest;" parent="145" vertex="1">
                    <mxGeometry y="52" width="80" height="26" as="geometry"/>
                </mxCell>
                <mxCell id="148" value="3" style="text;strokeColor=none;fillColor=none;align=left;verticalAlign=top;spacingLeft=4;spacingRight=4;overflow=hidden;rotatable=0;points=[[0,0.5],[1,0.5]];portConstraint=eastwest;" parent="145" vertex="1">
                    <mxGeometry y="78" width="80" height="42" as="geometry"/>
                </mxCell>
                <mxCell id="149" value="name" style="swimlane;fontStyle=0;childLayout=stackLayout;horizontal=1;startSize=26;horizontalStack=0;resizeParent=1;resizeParentMax=0;resizeLast=0;collapsible=1;marginBottom=0;direction=east;" parent="1" vertex="1">
                    <mxGeometry x="680" y="240" width="80" height="120" as="geometry"/>
                </mxCell>
                <mxCell id="150" value="Peugeot 206" style="text;strokeColor=none;fillColor=none;align=left;verticalAlign=top;spacingLeft=4;spacingRight=4;overflow=hidden;rotatable=0;points=[[0,0.5],[1,0.5]];portConstraint=eastwest;" parent="149" vertex="1">
                    <mxGeometry y="26" width="80" height="26" as="geometry"/>
                </mxCell>
                <mxCell id="151" value="Ford Falcon" style="text;strokeColor=none;fillColor=none;align=left;verticalAlign=top;spacingLeft=4;spacingRight=4;overflow=hidden;rotatable=0;points=[[0,0.5],[1,0.5]];portConstraint=eastwest;" parent="149" vertex="1">
                    <mxGeometry y="52" width="80" height="26" as="geometry"/>
                </mxCell>
                <mxCell id="152" value="Torino" style="text;strokeColor=none;fillColor=none;align=left;verticalAlign=top;spacingLeft=4;spacingRight=4;overflow=hidden;rotatable=0;points=[[0,0.5],[1,0.5]];portConstraint=eastwest;" parent="149" vertex="1">
                    <mxGeometry y="78" width="80" height="42" as="geometry"/>
                </mxCell>
                <mxCell id="166" value="vehicle_id" style="swimlane;fontStyle=0;childLayout=stackLayout;horizontal=1;startSize=26;horizontalStack=0;resizeParent=1;resizeParentMax=0;resizeLast=0;collapsible=1;marginBottom=0;direction=east;" parent="1" vertex="1">
                    <mxGeometry x="490" y="240" width="80" height="252" as="geometry"/>
                </mxCell>
                <mxCell id="167" value="1" style="text;strokeColor=none;fillColor=none;align=left;verticalAlign=top;spacingLeft=4;spacingRight=4;overflow=hidden;rotatable=0;points=[[0,0.5],[1,0.5]];portConstraint=eastwest;" parent="166" vertex="1">
                    <mxGeometry y="26" width="80" height="24" as="geometry"/>
                </mxCell>
                <mxCell id="168" value="1" style="text;strokeColor=none;fillColor=none;align=left;verticalAlign=top;spacingLeft=4;spacingRight=4;overflow=hidden;rotatable=0;points=[[0,0.5],[1,0.5]];portConstraint=eastwest;" parent="166" vertex="1">
                    <mxGeometry y="50" width="80" height="26" as="geometry"/>
                </mxCell>
                <mxCell id="201" value="1" style="text;strokeColor=none;fillColor=none;align=left;verticalAlign=top;spacingLeft=4;spacingRight=4;overflow=hidden;rotatable=0;points=[[0,0.5],[1,0.5]];portConstraint=eastwest;" parent="166" vertex="1">
                    <mxGeometry y="76" width="80" height="24" as="geometry"/>
                </mxCell>
                <mxCell id="202" value="2" style="text;strokeColor=none;fillColor=none;align=left;verticalAlign=top;spacingLeft=4;spacingRight=4;overflow=hidden;rotatable=0;points=[[0,0.5],[1,0.5]];portConstraint=eastwest;" parent="166" vertex="1">
                    <mxGeometry y="100" width="80" height="26" as="geometry"/>
                </mxCell>
                <mxCell id="209" value="2" style="text;strokeColor=none;fillColor=none;align=left;verticalAlign=top;spacingLeft=4;spacingRight=4;overflow=hidden;rotatable=0;points=[[0,0.5],[1,0.5]];portConstraint=eastwest;" parent="166" vertex="1">
                    <mxGeometry y="126" width="80" height="24" as="geometry"/>
                </mxCell>
                <mxCell id="210" value="2" style="text;strokeColor=none;fillColor=none;align=left;verticalAlign=top;spacingLeft=4;spacingRight=4;overflow=hidden;rotatable=0;points=[[0,0.5],[1,0.5]];portConstraint=eastwest;" parent="166" vertex="1">
                    <mxGeometry y="150" width="80" height="26" as="geometry"/>
                </mxCell>
                <mxCell id="217" value="3" style="text;strokeColor=none;fillColor=none;align=left;verticalAlign=top;spacingLeft=4;spacingRight=4;overflow=hidden;rotatable=0;points=[[0,0.5],[1,0.5]];portConstraint=eastwest;" parent="166" vertex="1">
                    <mxGeometry y="176" width="80" height="24" as="geometry"/>
                </mxCell>
                <mxCell id="218" value="3" style="text;strokeColor=none;fillColor=none;align=left;verticalAlign=top;spacingLeft=4;spacingRight=4;overflow=hidden;rotatable=0;points=[[0,0.5],[1,0.5]];portConstraint=eastwest;" parent="166" vertex="1">
                    <mxGeometry y="200" width="80" height="26" as="geometry"/>
                </mxCell>
                <mxCell id="222" value="3" style="text;strokeColor=none;fillColor=none;align=left;verticalAlign=top;spacingLeft=4;spacingRight=4;overflow=hidden;rotatable=0;points=[[0,0.5],[1,0.5]];portConstraint=eastwest;" parent="166" vertex="1">
                    <mxGeometry y="226" width="80" height="26" as="geometry"/>
                </mxCell>
                <mxCell id="225" value="" style="endArrow=none;html=1;entryX=0.988;entryY=0.115;entryDx=0;entryDy=0;entryPerimeter=0;" parent="1" edge="1">
                    <mxGeometry width="50" height="50" relative="1" as="geometry">
                        <mxPoint x="310" y="600.01" as="sourcePoint"/>
                        <mxPoint x="629.04" y="600" as="targetPoint"/>
                    </mxGeometry>
                </mxCell>
                <mxCell id="61" style="edgeStyle=orthogonalEdgeStyle;rounded=0;orthogonalLoop=1;jettySize=auto;html=1;entryX=1;entryY=0.5;entryDx=0;entryDy=0;endArrow=ERmany;endFill=0;startArrow=ERmandOne;startFill=0;exitX=0;exitY=0.5;exitDx=0;exitDy=0;" parent="1" source="88" target="16" edge="1">
                    <mxGeometry relative="1" as="geometry">
                        <mxPoint x="419" y="371" as="sourcePoint"/>
                        <mxPoint x="-5" y="130" as="targetPoint"/>
                    </mxGeometry>
                </mxCell>
                <mxCell id="162" style="edgeStyle=orthogonalEdgeStyle;rounded=0;orthogonalLoop=1;jettySize=auto;html=1;endArrow=ERmany;endFill=0;startArrow=ERmandOne;startFill=0;exitX=0;exitY=0.5;exitDx=0;exitDy=0;entryX=1;entryY=0.5;entryDx=0;entryDy=0;" parent="1" source="29" target="226" edge="1">
                    <mxGeometry relative="1" as="geometry">
                        <mxPoint x="570" y="60" as="sourcePoint"/>
                        <mxPoint x="522.75" y="95" as="targetPoint"/>
                    </mxGeometry>
                </mxCell>
                <mxCell id="229" value="" style="endArrow=classic;html=1;" edge="1" parent="1">
                    <mxGeometry width="50" height="50" relative="1" as="geometry">
                        <mxPoint x="399" y="199" as="sourcePoint"/>
                        <mxPoint x="279.5" y="199" as="targetPoint"/>
                    </mxGeometry>
                </mxCell>
                <mxCell id="230" value="belongsTo" style="text;html=1;strokeColor=none;fillColor=none;align=center;verticalAlign=middle;whiteSpace=wrap;rounded=0;" vertex="1" parent="1">
                    <mxGeometry x="289" y="180" width="102.5" height="20" as="geometry"/>
                </mxCell>
                <mxCell id="231" value="" style="endArrow=classic;html=1;" edge="1" parent="1">
                    <mxGeometry width="50" height="50" relative="1" as="geometry">
                        <mxPoint x="394" y="159" as="sourcePoint"/>
                        <mxPoint x="520" y="159" as="targetPoint"/>
                    </mxGeometry>
                </mxCell>
                <mxCell id="232" value="belongsTo" style="text;html=1;strokeColor=none;fillColor=none;align=center;verticalAlign=middle;whiteSpace=wrap;rounded=0;" vertex="1" parent="1">
                    <mxGeometry x="414.5" y="139" width="90" height="20" as="geometry"/>
                </mxCell>
                <mxCell id="233" value="" style="endArrow=classic;html=1;" edge="1" parent="1">
                    <mxGeometry width="50" height="50" relative="1" as="geometry">
                        <mxPoint x="723" y="199" as="sourcePoint"/>
                        <mxPoint x="422.5" y="199" as="targetPoint"/>
                    </mxGeometry>
                </mxCell>
                <mxCell id="234" value="belongsToMany" style="text;html=1;strokeColor=none;fillColor=none;align=center;verticalAlign=middle;whiteSpace=wrap;rounded=0;" vertex="1" parent="1">
                    <mxGeometry x="520" y="180" width="90" height="20" as="geometry"/>
                </mxCell>
            </root>
        </mxGraphModel>
    </diagram>
</mxfile>